<?xml version="1.0" standalone="no"?>
<!DOCTYPE svg PUBLIC "-//W3C//DTD SVG 20010904//EN"
 "http://www.w3.org/TR/2001/REC-SVG-20010904/DTD/svg10.dtd">
<svg version="1.0" xmlns="http://www.w3.org/2000/svg"
 width="70.000000pt" height="70.000000pt" viewBox="0 0 70.000000 70.000000"
 preserveAspectRatio="xMidYMid meet">
<metadata>
Created by potrace 1.14, written by Peter Selinger 2001-2017
</metadata>
<g transform="translate(0.000000,70.000000) scale(0.100000,-0.100000)"
fill="#000000" stroke="none">
<path d="M0 350 l0 -350 350 0 350 0 0 350 0 350 -350 0 -350 0 0 -350z m400
125 c29 -15 57 -52 47 -62 -3 -2 -8 5 -12 16 -7 23 -34 41 -80 52 -25 6 -26 7
-7 8 13 1 36 -6 52 -14z m-111 -24 c-21 -21 -29 -40 -30 -68 -1 -25 -3 -30 -6
-14 -9 44 25 111 56 111 5 0 -4 -13 -20 -29z m102 -59 c0 -41 3 -51 9 -37 5
11 9 14 9 7 1 -19 -18 -52 -30 -52 -6 0 -7 5 -4 10 8 13 -5 13 -25 0 -10 -6
-11 -10 -2 -10 6 0 12 -7 12 -15 0 -8 -7 -15 -15 -15 -25 0 -72 27 -79 46 -4
10 4 7 25 -10 17 -14 38 -26 47 -26 13 1 10 6 -10 21 -16 11 -28 26 -28 32 0
7 5 4 11 -5 5 -10 15 -18 21 -18 6 0 5 7 -3 18 -12 15 -12 16 2 4 20 -15 49
-6 49 15 0 11 -8 14 -30 11 -16 -3 -30 -3 -30 -2 0 1 3 10 6 19 5 13 8 14 15
3 7 -10 9 -9 9 5 0 9 5 17 11 17 5 0 8 -4 4 -9 -3 -5 -1 -12 5 -16 18 -11 11
57 -7 72 -16 13 -16 13 5 3 19 -9 22 -19 23 -68z m59 -43 c-13 -31 -54 -69
-74 -69 -6 1 1 7 16 16 29 15 57 60 59 91 0 11 3 13 6 5 3 -7 -1 -26 -7 -43z
m-167 -116 c-3 -7 2 -13 12 -13 11 0 15 5 11 15 -3 8 -1 15 4 15 15 0 12 -30
-4 -36 -8 -3 -28 2 -45 11 -17 8 -31 11 -31 6 0 -5 5 -12 10 -14 6 -3 5 -4 -2
-3 -7 1 -14 10 -16 18 -2 12 5 15 31 14 23 -1 33 -5 30 -13z m71 2 c-4 -8 -8
-15 -10 -15 -2 0 -4 7 -4 15 0 8 4 15 10 15 5 0 7 -7 4 -15z m46 -8 c0 -7 -4
-6 -10 3 -8 12 -10 12 -10 1 0 -8 -3 -12 -6 -8 -9 9 6 28 17 22 5 -4 9 -12 9
-18z m17 1 c-3 -8 -6 -5 -6 6 -1 11 2 17 5 13 3 -3 4 -12 1 -19z m50 5 c0 -7
-3 -11 -5 -8 -3 3 -11 0 -18 -6 -9 -8 -11 -6 -7 9 5 21 30 26 30 5z"/>
</g>
</svg>
